<?xml version="1.0" standalone="no"?>
<!DOCTYPE svg PUBLIC "-//W3C//DTD SVG 20010904//EN"
 "http://www.w3.org/TR/2001/REC-SVG-20010904/DTD/svg10.dtd">
<svg version="1.0" xmlns="http://www.w3.org/2000/svg"
 width="500.000000pt" height="500.000000pt" viewBox="0 0 500.000000 500.000000"
 preserveAspectRatio="xMidYMid meet">
<metadata>
Created by potrace 1.14, written by Peter Selinger 2001-2017
</metadata>
<g transform="translate(0.000000,500.000000) scale(0.100000,-0.100000)"
fill="#000000" stroke="none">
<path d="M2270 4990 c-36 -4 -85 -10 -110 -14 -25 -4 -58 -9 -75 -12 -16 -2
-41 -6 -55 -9 -14 -3 -38 -7 -55 -10 -16 -2 -70 -16 -120 -30 -49 -14 -97 -27
-105 -29 -9 -2 -60 -21 -115 -41 -231 -86 -508 -243 -705 -400 -69 -55 -252
-232 -326 -315 -67 -76 -216 -285 -260 -365 -201 -366 -295 -658 -333 -1030
-11 -114 -6 -446 8 -545 47 -314 112 -530 236 -785 127 -259 273 -464 475
-665 181 -182 320 -289 538 -414 225 -129 525 -241 752 -280 19 -3 46 -8 60
-11 174 -34 516 -44 710 -19 136 17 166 21 198 29 15 3 37 7 49 10 62 11 230
61 328 97 633 232 1163 732 1425 1343 23 55 48 114 55 130 18 41 81 251 91
300 2 11 8 43 14 70 18 89 20 99 26 150 3 28 10 77 14 110 9 62 6 491 -3 535
-3 14 -8 45 -11 70 -15 115 -64 314 -112 457 -78 234 -255 552 -417 753 -93
116 -311 327 -422 410 -55 41 -101 78 -103 83 -2 4 -8 7 -13 7 -6 0 -36 17
-67 38 -82 56 -222 131 -332 179 -86 37 -278 107 -326 118 -10 2 -53 13 -94
25 -148 39 -343 62 -555 65 -110 1 -229 -1 -265 -5z"/>
</g>
</svg>
